# xmcd CD Database Entry
#
# Track frame offsets:
# 150
# 16670
# 29322
# 58732
# 81885
# 113750
# 135482
# 154817
# 184747
# 208507
# 242030
#
# Disc length: 3655 seconds
#
# Revision: 1
# Processed by: cddbd v1.4PL0 Copyright (c) Steve Scherf et al.
# Submitted via: tcd 2.0b
#
DISCID=870e450b
DTITLE=Eric Claption - Backtrackin' [CD2]
DYEAR=1900
DGENRE=
TTITLE0=Cocaine
TTITLE1=Strange Brew
TTITLE2=Spoonful
TTITLE3=Let It Rain
TTITLE4=Have You Ever Loved A Woman?
TTITLE5=Presence of the Lord
TTITLE6=Crossroads
TTITLE7=Roll It Over
TTITLE8=Can't Find My Way Home
TTITLE9=Blues Power
TTITLE10=Further on Up The Road
EXTD=
EXTT0=
EXTT1=
EXTT2=
EXTT3=
EXTT4=
EXTT5=
EXTT6=
EXTT7=
EXTT8=
EXTT9=
EXTT10=
PLAYORDER=
